<?xml version="1.0" standalone="no"?>
<!DOCTYPE svg PUBLIC "-//W3C//DTD SVG 20010904//EN"
 "http://www.w3.org/TR/2001/REC-SVG-20010904/DTD/svg10.dtd">
<svg version="1.0" xmlns="http://www.w3.org/2000/svg"
 width="300.000000pt" height="88.000000pt" viewBox="0 0 300.000000 88.000000"
 preserveAspectRatio="xMidYMid meet">
<metadata>
Created by potrace 1.10, written by Peter Selinger 2001-2011
</metadata>
<g transform="translate(0.000000,88.000000) scale(0.100000,-0.100000)"
fill="#000000" stroke="none">
<path d="M2565 860 c-3 -11 -22 -32 -41 -47 -19 -14 -42 -39 -50 -55 -14 -26
-13 -28 6 -28 11 0 20 -7 20 -15 0 -20 -30 -32 -39 -16 -4 6 -15 9 -25 5 -11
-4 -27 3 -45 20 -26 25 -33 27 -77 21 -27 -4 -53 -11 -59 -15 -5 -4 -25 -10
-43 -13 -18 -4 -45 -16 -62 -28 -23 -18 -32 -20 -43 -10 -12 9 -21 7 -44 -13
-23 -19 -37 -23 -75 -21 -26 2 -57 6 -68 10 -17 5 -30 -2 -59 -34 -21 -23 -47
-41 -57 -41 -11 0 -25 -5 -32 -12 -9 -9 -18 -9 -39 1 -26 12 -30 10 -61 -23
-18 -20 -35 -50 -39 -66 -3 -17 -9 -30 -13 -30 -9 0 -55 97 -64 135 -9 34 -33
65 -52 65 -22 0 -46 -46 -46 -87 0 -63 -20 -90 -70 -95 -27 -3 -53 2 -70 11
-24 14 -28 14 -48 -4 -15 -13 -33 -18 -56 -16 -20 1 -46 -4 -59 -13 -28 -18
-189 -23 -200 -6 -3 6 -24 10 -45 10 -33 0 -44 -6 -73 -40 -19 -22 -42 -40
-52 -40 -11 0 -31 -12 -46 -26 -26 -25 -29 -25 -44 -10 -19 19 -38 20 -64 4
-18 -11 -18 -13 -3 -25 16 -11 15 -12 -4 -13 -19 0 -20 -4 -13 -65 10 -101 29
-106 31 -9 1 65 14 112 27 98 4 -5 14 -28 21 -51 12 -38 30 -58 30 -34 0 5 11
23 25 39 14 17 23 37 19 45 -3 8 -1 18 5 22 6 3 13 0 15 -7 21 -74 31 -98 40
-98 5 0 1 -7 -10 -16 -16 -13 -16 -15 -1 -10 21 7 22 -2 1 -25 -21 -23 -9 -45
14 -27 12 10 14 10 8 1 -4 -8 -2 -13 7 -13 8 0 21 -9 28 -21 11 -16 20 -19 42
-14 31 8 40 26 52 92 6 39 5 43 -14 43 -26 0 -26 12 -3 48 l17 27 -29 -23
c-16 -12 -34 -22 -41 -22 -9 0 -11 -8 -7 -22 5 -20 6 -20 12 -3 6 18 7 18 15
-1 11 -25 13 -124 3 -124 -4 0 -8 4 -8 10 0 5 -6 7 -14 4 -10 -4 -15 6 -19 38
-2 24 -10 70 -17 104 -7 33 -10 73 -6 88 8 34 50 55 76 38 14 -8 27 -9 45 -2
33 13 126 13 159 1 18 -7 28 -6 36 5 31 36 80 6 80 -50 0 -14 4 -26 9 -26 12
0 22 31 26 83 4 54 16 54 30 0 14 -57 19 -59 41 -18 36 67 82 21 68 -67 -6
-42 8 -51 26 -17 9 16 86 59 106 59 3 0 9 -12 14 -26 9 -22 14 -25 43 -19 49
10 77 50 77 110 l1 50 15 -27 c21 -39 36 -35 19 5 -7 17 -19 32 -26 32 -20 0
-39 -45 -39 -92 0 -31 -5 -45 -18 -52 -28 -15 -59 -2 -72 30 l-13 29 -23 -25
c-26 -28 -28 -29 -55 -15 -37 21 -17 105 29 121 7 3 6 22 -4 58 -7 29 -11 58
-8 62 9 15 24 -1 24 -25 0 -29 29 -116 45 -136 7 -8 18 -32 25 -52 8 -26 18
-38 30 -38 22 0 30 19 30 71 0 30 6 46 25 63 14 13 25 28 25 35 0 23 17 10 34
-26 l18 -38 17 35 c9 19 23 35 30 35 20 0 64 -86 51 -99 -7 -7 -15 4 -27 32
-15 40 -33 55 -33 30 -1 -7 -9 -31 -20 -53 -10 -22 -16 -43 -13 -47 8 -14 21
1 29 34 l7 33 27 -34 28 -33 45 31 c30 20 58 31 80 31 30 0 34 3 30 20 -6 22
-18 26 -28 10 -3 -6 -12 -10 -20 -10 -12 0 -33 -6 -69 -21 -5 -2 -10 5 -12 16
-2 11 -8 21 -13 23 -21 7 -11 22 14 22 22 0 24 3 15 19 -25 48 6 95 46 67 27
-19 35 -20 46 -4 6 10 13 8 31 -12 33 -37 50 -32 60 18 4 23 12 42 16 42 12 0
21 -39 11 -45 -4 -2 -10 -23 -14 -45 -9 -56 -30 -61 -67 -16 -33 40 -69 48
-69 17 0 -11 -5 -23 -10 -26 -11 -7 -4 -25 10 -25 5 0 7 8 3 18 -5 14 -3 15 8
5 7 -7 21 -13 31 -13 10 0 18 -4 18 -10 0 -5 9 -10 20 -10 18 0 25 -11 21 -34
-1 -5 10 -1 25 9 25 16 27 16 46 -2 11 -11 21 -28 22 -39 6 -39 -44 -59 -364
-144 -80 -22 -172 -48 -205 -60 -33 -11 -71 -23 -85 -26 -14 -3 -68 -17 -120
-31 -52 -14 -104 -28 -115 -30 -11 -3 -27 -7 -35 -10 -8 -3 -22 -7 -32 -9 -9
-2 -67 -18 -130 -35 -62 -17 -127 -35 -143 -39 -44 -10 -77 -29 -70 -41 4 -5
13 -9 22 -9 15 0 334 86 542 146 95 27 111 29 111 11 0 -7 -21 -19 -47 -27
-50 -15 -56 -17 -85 -19 -10 0 -18 -5 -18 -10 0 -5 9 -7 20 -4 11 3 20 0 20
-6 0 -6 6 -11 14 -11 13 0 84 30 116 50 8 5 41 19 72 31 32 12 56 24 55 25 -2
2 -32 -5 -68 -16 -35 -11 -65 -20 -66 -20 -2 0 -3 7 -3 15 0 8 1 15 3 15 1 0
112 32 247 71 135 38 268 76 295 84 28 7 63 18 78 24 33 13 67 14 67 3 0 -9
-36 -22 -113 -42 -26 -7 -50 -17 -54 -23 -4 -7 1 -8 13 -3 10 4 48 12 83 18
51 8 66 7 72 -3 20 -36 37 -51 47 -45 17 10 15 20 -13 52 -14 16 -25 40 -25
53 0 21 -3 23 -30 18 -31 -7 -49 8 -32 25 8 8 16 7 27 -2 30 -25 15 9 -25 55
-41 48 -57 85 -45 105 6 9 10 9 17 -1 7 -10 8 -6 4 12 -4 19 -1 29 9 33 8 3
15 14 15 25 0 26 30 43 53 30 9 -6 17 -16 17 -23 0 -14 21 -26 46 -26 19 0 18
13 -6 40 -11 13 -20 27 -20 32 0 13 16 9 30 -7 11 -13 16 -12 38 10 29 29 46
32 38 8 -3 -10 -8 -31 -12 -46 -4 -20 -11 -26 -22 -22 -12 4 -13 3 -3 -9 14
-17 11 -57 -4 -55 -5 0 -9 5 -8 10 5 15 -15 10 -25 -7 -8 -14 -50 -21 -81 -13
-7 2 -15 -1 -18 -7 -2 -6 10 -14 28 -18 27 -5 30 -8 19 -21 -16 -19 -40 -19
-68 1 -31 22 -29 -2 4 -40 17 -19 29 -25 35 -19 16 16 231 4 249 -14 13 -12
11 -18 -20 -44 -19 -16 -58 -45 -87 -64 -63 -43 -72 -55 -41 -55 18 0 20 -2 8
-10 -8 -5 -11 -10 -7 -10 11 0 51 21 57 31 3 4 12 9 20 11 15 3 83 77 100 109
8 13 8 25 0 38 -20 39 -51 51 -127 51 -76 0 -95 13 -45 31 15 5 37 24 50 42
l22 32 -22 6 c-20 5 -17 8 20 19 23 7 42 17 42 22 0 4 -15 14 -32 22 -21 9
-26 15 -15 15 10 1 31 -6 48 -15 28 -14 32 -14 64 6 29 18 33 24 23 39 -16 26
-3 51 27 51 14 0 25 -4 25 -10 0 -5 -7 -10 -15 -10 -17 0 -20 -16 -6 -25 11
-6 61 15 61 26 0 5 -7 6 -15 3 -8 -4 -15 -1 -15 5 0 6 5 11 11 11 8 0 9 13 5
39 -3 23 -2 42 4 46 12 7 21 -14 24 -50 1 -28 8 -28 113 -10 37 7 43 5 58 -19
10 -16 15 -35 11 -49 -7 -28 32 -71 58 -65 14 3 14 6 1 31 -8 15 -15 31 -17
35 -2 4 -5 6 -8 5 -5 -1 -9 19 -13 82 -2 37 0 40 25 43 18 2 31 -4 42 -20 20
-29 20 -47 -1 -70 -14 -16 -15 -23 -5 -38 7 -11 12 -33 12 -50 0 -28 -3 -30
-35 -30 -24 0 -39 7 -52 23 -15 21 -22 23 -61 15 -25 -4 -58 -15 -75 -23 -17
-8 -31 -15 -32 -15 -1 0 -7 18 -14 40 -10 36 -15 40 -34 34 -31 -9 -32 -11
-17 -38 7 -14 10 -32 6 -42 -6 -14 -16 -16 -74 -11 -38 3 -75 1 -83 -4 -11 -7
-9 -9 9 -9 12 0 22 -4 22 -10 0 -6 18 -7 45 -3 27 3 45 2 45 -4 0 -19 32 -9
43 14 10 23 37 32 37 13 0 -16 43 -11 65 7 16 13 17 15 3 10 -10 -4 -18 -2
-18 2 0 10 61 34 68 26 3 -2 -3 -7 -12 -11 -19 -7 -22 -24 -3 -24 6 0 25 7 40
15 27 14 31 13 61 -10 65 -49 91 -25 99 93 4 53 2 91 -5 107 -10 23 -17 25
-71 25 -36 0 -67 -5 -76 -13 -9 -7 -36 -20 -60 -27 -43 -14 -44 -14 -65 13
-27 34 -81 38 -91 7z"/>
<path d="M2840 847 c0 -3 6 -20 14 -38 12 -27 16 -30 21 -17 10 26 2 52 -18
56 -9 2 -17 1 -17 -1z"/>
<path d="M2670 777 c-14 -6 -26 -11 -27 -12 -1 -1 3 -18 9 -38 13 -43 30 -50
26 -11 -4 33 19 44 24 12 2 -13 8 -21 13 -18 6 3 8 10 6 15 -2 6 -6 22 -9 38
-5 30 -6 30 -42 14z"/>
<path d="M2743 774 c-3 -9 3 -25 16 -37 17 -17 21 -18 21 -5 0 8 -7 21 -15 28
-8 7 -12 16 -9 21 3 5 3 9 -1 9 -3 0 -8 -7 -12 -16z"/>
<path d="M2535 690 c-3 -6 -9 -8 -13 -6 -4 2 -15 -2 -25 -9 -16 -11 -16 -13
-2 -19 9 -3 30 0 47 7 27 11 29 14 15 25 -10 9 -17 10 -22 2z"/>
<path d="M2231 617 c-19 -19 -12 -27 24 -27 25 0 33 4 29 14 -7 19 -40 26 -53
13z"/>
<path d="M1502 468 c-6 -7 -13 -25 -17 -41 -5 -20 -4 -27 8 -27 15 0 46 30 31
30 -5 0 -2 5 6 10 13 8 13 11 -1 25 -13 13 -18 14 -27 3z"/>
<path d="M2254 398 c13 -29 30 -54 37 -56 8 -1 26 9 41 23 15 14 31 25 35 25
4 0 24 14 43 30 l35 29 -36 1 c-37 0 -66 -21 -54 -40 3 -5 1 -10 -6 -10 -7 0
-9 10 -7 25 5 24 4 25 -53 25 l-58 0 23 -52z m76 23 c0 -16 -19 -23 -40 -16
-30 10 -24 25 10 25 17 0 30 -4 30 -9z"/>
<path d="M170 396 c-71 -37 -122 -113 -135 -201 -11 -72 57 -158 129 -164 4
-1 6 -8 2 -16 -4 -12 3 -15 34 -15 22 0 40 4 40 9 0 5 -9 7 -20 4 -10 -3 -26
2 -34 10 -9 8 -20 17 -25 19 -5 1 -11 10 -13 18 -2 8 -15 22 -29 32 -88 55
-44 215 75 273 48 23 58 25 72 14 15 -12 14 -14 -7 -20 -19 -5 -15 -7 14 -6
44 0 45 5 12 41 -30 32 -57 33 -115 2z"/>
<path d="M1371 385 c-25 -43 -61 -46 -72 -5 l-7 25 -1 -27 c-1 -15 -6 -30 -12
-34 -6 -3 -9 -17 -6 -30 5 -30 -22 -34 -30 -4 -5 19 -23 29 -23 12 0 -4 -14
-16 -31 -26 -24 -14 -33 -15 -39 -6 -5 8 -9 7 -13 -4 -4 -10 1 -20 13 -26 11
-6 20 -7 20 -3 0 5 14 17 32 27 31 19 31 19 49 -2 21 -27 31 -27 54 -2 14 16
16 23 7 32 -24 24 -20 25 75 31 21 2 22 6 17 37 -4 19 -8 36 -9 38 -1 2 -12
-13 -24 -33z"/>
<path d="M1187 403 c-7 -7 21 -43 33 -43 4 0 5 11 2 25 -4 24 -21 33 -35 18z"/>
<path d="M893 392 c-13 -8 -17 -30 -15 -69 2 -30 22 -30 22 0 0 12 7 32 15 43
19 28 6 44 -22 26z"/>
<path d="M967 393 c-11 -11 -8 -58 5 -71 18 -18 28 -14 28 11 0 39 22 59 60
55 33 -3 35 -5 42 -51 4 -27 9 -52 13 -55 11 -12 25 23 19 50 -3 14 0 29 5 33
6 3 11 13 11 21 0 11 -18 14 -88 14 -49 0 -92 -3 -95 -7z"/>
<path d="M1166 354 c-8 -31 -3 -39 19 -30 10 3 15 15 13 28 -4 31 -25 33 -32
2z"/>
<path d="M173 321 c-29 -24 -29 -31 -2 -31 14 0 19 5 16 14 -3 7 0 19 6 25 18
18 4 12 -20 -8z"/>
<path d="M231 316 c-12 -12 -21 -28 -21 -35 0 -7 -11 -26 -24 -42 -15 -17 -23
-38 -22 -54 2 -14 0 -25 -4 -25 -4 0 -10 -9 -13 -20 -8 -29 27 -35 66 -11 28
17 33 25 29 50 -3 23 -10 31 -31 34 l-26 3 26 11 c14 6 47 15 74 18 38 6 47 5
43 -6 -2 -8 -17 -15 -31 -17 -27 -3 -38 -34 -17 -47 6 -3 10 0 10 8 0 16 24
30 34 20 3 -4 4 -20 0 -38 -4 -25 0 -35 23 -55 16 -14 37 -26 48 -27 11 -1 15
0 9 3 -7 3 -10 13 -7 23 3 11 -6 29 -21 44 -14 14 -26 34 -26 44 0 44 67 96
95 73 9 -7 16 -6 26 6 11 13 10 17 -2 25 -22 14 -73 11 -95 -6 -23 -18 -91
-20 -97 -2 -2 6 2 19 10 28 12 15 11 17 -11 17 -14 0 -34 -10 -45 -22z"/>
<path d="M1975 289 c-30 -11 -38 -17 -20 -14 82 14 94 18 78 28 -4 2 -30 -4
-58 -14z"/>
<path d="M485 274 c-11 -12 -14 -26 -9 -52 4 -21 8 -39 10 -40 1 -2 -12 -17
-29 -33 -18 -15 -26 -29 -19 -29 7 0 15 7 18 15 4 8 15 15 26 15 18 0 20 5 15
35 -5 30 -3 35 13 35 16 0 17 4 10 29 -4 16 -6 32 -2 35 3 3 0 6 -6 6 -6 0
-18 -7 -27 -16z"/>
<path d="M2068 276 c-25 -9 -39 -26 -21 -26 14 0 73 24 73 30 0 9 -21 8 -52
-4z"/>
<path d="M122 255 c-14 -31 -16 -101 -3 -110 6 -3 10 12 9 35 0 22 7 51 15 64
15 22 13 36 -3 36 -4 0 -12 -11 -18 -25z"/>
<path d="M757 254 c-4 -12 -19 -34 -32 -48 -30 -32 -20 -34 18 -3 21 16 28 29
25 47 -4 24 -4 24 -11 4z"/>
<path d="M1840 250 c-30 -10 -50 -18 -45 -19 6 0 37 8 70 18 33 11 53 19 45
19 -8 1 -40 -7 -70 -18z"/>
<path d="M1995 250 c-3 -5 -17 -10 -31 -10 -13 0 -24 -4 -24 -10 0 -5 -11 -10
-24 -10 -14 0 -27 -4 -31 -10 -3 -5 -12 -7 -20 -3 -8 3 -15 0 -15 -6 0 -6 3
-11 7 -11 19 0 173 56 173 63 0 11 -28 9 -35 -3z"/>
<path d="M390 224 c-10 -25 1 -64 19 -64 20 0 42 39 35 64 -8 34 -41 35 -54 0z"/>
<path d="M650 175 c0 -36 1 -38 16 -23 15 15 15 18 0 39 -16 23 -16 23 -16
-16z"/>
<path d="M1775 186 c-50 -16 -52 -16 -70 -16 -8 0 -15 -4 -15 -10 0 -5 14 -10
30 -10 17 0 30 5 30 11 0 6 6 9 13 6 7 -3 28 4 47 14 40 21 23 23 -35 5z"/>
<path d="M228 105 c-32 -28 -27 -37 12 -22 26 10 32 8 50 -11 22 -24 43 -22
33 3 -3 8 -13 15 -24 15 -10 0 -24 9 -31 19 -13 18 -14 18 -40 -4z"/>
<path d="M1145 55 l-190 -54 142 0 c78 -1 144 3 148 8 11 18 -15 22 -80 10
-59 -10 -87 -8 -74 5 8 8 228 66 250 66 11 0 17 5 14 10 -8 13 11 17 -210 -45z"/>
</g>
</svg>
